<svg xmlns="http://www.w3.org/2000/svg" xmlns:xlink="http://www.w3.org/1999/xlink" width="113" height="113" viewBox="0 0 113 113">
  <defs>
    <linearGradient id="icon-c" x1="82.766%" x2="17.234%" y1="0%" y2="100%">
      <stop offset="0%" stop-color="#3F94FF"/>
      <stop offset="55.722%" stop-color="#2C73FA"/>
      <stop offset="100%" stop-color="#5C2CFA"/>
    </linearGradient>
    <rect id="icon-b" width="75.039" height="92.695" x="0" y="0" rx="1.324"/>
    <filter id="icon-a" width="109.3%" height="107.6%" x="-4.7%" y="-2.7%" filterUnits="objectBoundingBox">
      <feOffset dy="1" in="SourceAlpha" result="shadowOffsetOuter1"/>
      <feGaussianBlur in="shadowOffsetOuter1" result="shadowBlurOuter1" stdDeviation="1"/>
      <feColorMatrix in="shadowBlurOuter1" values="0 0 0 0 0   0 0 0 0 0   0 0 0 0 0  0 0 0 0.35 0"/>
    </filter>
    <path id="icon-e" d="M43.0296055,30.8984375 C46.3645424,30.8984375 49.068043,33.603855 49.068043,36.9411567 L49.068043,36.9411567 L49.068043,38.8194352 L59.1874578,32.9982824 C61.1096937,31.8954862 62.6796875,32.801894 62.6796875,35.0225934 L62.6796875,35.0225934 L62.6796875,57.6827903 C62.6796875,59.8934185 61.1046617,60.7998263 59.1874578,59.6970301 L59.1874578,59.6970301 L49.068043,53.8758773 L49.068043,55.7541558 C49.068043,59.0914575 46.3645424,61.796875 43.0296055,61.796875 L43.0296055,61.796875 L18.3978125,61.796875 C15.0628756,61.796875 12.359375,59.0914575 12.359375,55.7541558 L12.359375,55.7541558 L12.359375,36.9411567 C12.359375,33.603855 15.0628756,30.8984375 18.3978125,30.8984375 L18.3978125,30.8984375 Z M28.9367842,35.9597205 C24.1220908,35.9597205 20.2190107,39.9122067 20.2190107,44.7878455 C20.2190107,49.6634843 24.1220908,53.6159705 28.9367842,53.6159705 C30.9756594,53.6159705 32.8510584,52.9071857 34.3358115,51.7196612 L34.3358115,51.7196612 L38.8264482,56.2111471 L38.916502,56.2909053 C39.1068224,56.4403712 39.3547742,56.5280913 39.5947533,56.5280913 C39.8617068,56.5280913 40.1785784,56.4108653 40.3630584,56.2111471 C40.5518792,56.0049163 40.6929522,55.73356 40.6799301,55.4426661 C40.6690783,55.1539429 40.5714124,54.8825866 40.3630584,54.674185 L40.3630584,54.674185 L35.8523857,50.1636839 C36.982604,48.6749301 37.6545576,46.8108527 37.6545576,44.7878455 C37.6545576,39.9122067 33.7514775,35.9597205 28.9367842,35.9597205 Z M28.9367842,38.1667517 C32.5325678,38.1667517 35.4475263,41.1311164 35.4475263,44.7878455 C35.4475263,48.4445746 32.5325678,51.4089392 28.9367842,51.4089392 C25.3410005,51.4089392 22.426042,48.4445746 22.426042,44.7878455 C22.426042,41.1311164 25.3410005,38.1667517 28.9367842,38.1667517 Z M29.0457771,40.8333023 C28.7610701,40.8465859 28.4653279,40.9395714 28.264488,41.1565374 L28.264488,41.1565374 L28.1847904,41.2532794 C28.0346865,41.4523015 27.9422615,41.6840873 27.9422615,41.9402716 L27.9422615,41.9402716 L27.9420107,43.7007205 L26.1809405,43.7015926 L26.0588705,43.7090181 C25.8141496,43.7384366 25.5698934,43.8535625 25.3972062,44.0238192 C25.2045935,44.2158309 25.0606875,44.5292294 25.0739711,44.8051083 C25.0872548,45.0898153 25.1802402,45.3855575 25.3972062,45.5863973 L25.3972062,45.5863973 L25.4931349,45.6667899 C25.6908016,45.8178203 25.9228585,45.9086239 26.1809405,45.9086239 L26.1809405,45.9086239 L27.9420107,45.9077205 L27.9422615,47.6699449 L27.9496869,47.7920149 C27.9791054,48.0367358 28.0942313,48.280992 28.264488,48.4536792 C28.4564998,48.6462919 28.7698982,48.7901979 29.0457771,48.7769142 C29.3304841,48.7636306 29.6262263,48.6706452 29.8270662,48.4536792 L29.8270662,48.4536792 L29.9074587,48.3577505 C30.0584892,48.1600838 30.1492927,47.9280269 30.1492927,47.6699449 L30.1492927,47.6699449 L30.1490107,45.9077205 L31.9106137,45.9086239 L32.0326837,45.9011985 C32.2774046,45.87178 32.5216608,45.756654 32.694348,45.5863973 C32.8869607,45.3943856 33.0308667,45.0809872 33.0175831,44.8051083 C33.0042994,44.5204012 32.911314,44.2246591 32.694348,44.0238192 L32.694348,44.0238192 L32.597606,43.9441216 C32.3985839,43.7940177 32.1667981,43.7015926 31.9106137,43.7015926 L31.9106137,43.7015926 L30.1490107,43.7007205 L30.1492927,41.9402716 L30.1418673,41.8182016 C30.1124488,41.5734807 29.9973229,41.3292246 29.8270662,41.1565374 C29.6350545,40.9639247 29.321656,40.8200187 29.0457771,40.8333023 Z"/>
    <filter id="icon-d" width="117.9%" height="129.1%" x="-8.9%" y="-14.6%" filterUnits="objectBoundingBox">
      <feOffset in="SourceAlpha" result="shadowOffsetOuter1"/>
      <feGaussianBlur in="shadowOffsetOuter1" result="shadowBlurOuter1" stdDeviation="1.5"/>
      <feColorMatrix in="shadowBlurOuter1" values="0 0 0 0 0   0 0 0 0 0   0 0 0 0 0  0 0 0 0.2 0"/>
    </filter>
  </defs>
  <g fill="none" fill-rule="evenodd" transform="rotate(-9 107.192 -67.98)">
    <use fill="#000" filter="url(#icon-a)" xlink:href="#icon-b"/>
    <use fill="url(#icon-c)" xlink:href="#icon-b"/>
    <g fill-rule="nonzero">
      <use fill="#000" filter="url(#icon-d)" xlink:href="#icon-e"/>
      <use fill="#FFF" xlink:href="#icon-e"/>
    </g>
  </g>
</svg>
